<?xml version="1.0" standalone="no"?>
<!DOCTYPE svg PUBLIC "-//W3C//DTD SVG 20010904//EN"
 "http://www.w3.org/TR/2001/REC-SVG-20010904/DTD/svg10.dtd">
<svg version="1.0" xmlns="http://www.w3.org/2000/svg"
 width="512.000000pt" height="512.000000pt" viewBox="0 0 512.000000 512.000000"
 preserveAspectRatio="xMidYMid meet">
<metadata>
Created by potrace 1.14, written by Peter Selinger 2001-2017
</metadata>
<g transform="translate(0.000000,512.000000) scale(0.100000,-0.100000)"
fill="#000000" stroke="none">
<path d="M2228 5106 c-20 -19 -28 -239 -28 -732 l0 -382 -121 -327 c-66 -180
-119 -334 -117 -343 2 -10 131 -106 287 -214 156 -108 288 -201 293 -206 10
-10 -192 -514 -217 -542 -9 -10 -76 -51 -149 -90 -377 -204 -642 -473 -830
-840 -84 -166 -135 -296 -176 -454 -16 -60 -36 -116 -44 -124 -24 -24 -57 -6
-114 63 -166 200 -294 459 -354 714 -29 126 -36 377 -14 507 87 513 468 934
965 1066 61 16 92 30 116 53 111 104 25 280 -127 262 -117 -14 -355 -111 -513
-209 -376 -234 -638 -614 -737 -1070 -30 -139 -33 -474 -5 -610 40 -199 124
-435 194 -552 94 -154 307 -386 493 -535 358 -288 760 -459 1215 -517 191 -24
499 -24 655 0 279 43 568 136 793 254 l87 46 0 1275 0 1276 311 215 c171 118
313 220 316 226 2 7 -50 160 -117 340 l-121 329 -6 553 c-6 548 -6 554 -27
567 -41 27 -216 -27 -323 -99 -90 -62 -271 -273 -327 -383 l-17 -33 -288 0
-289 0 -13 32 c-27 66 -133 213 -197 275 -108 104 -210 168 -312 196 -93 26
-127 29 -142 13z m821 -1315 c8 -13 6 -36 -5 -77 -92 -353 -569 -398 -729 -69
-31 63 -42 130 -25 150 11 13 65 15 381 15 351 0 369 -1 378 -19z m1031 -1
c13 -25 -2 -95 -36 -162 -35 -70 -104 -134 -182 -171 -61 -29 -76 -32 -162
-32 -86 0 -101 3 -162 32 -116 54 -191 149 -220 273 -19 84 -39 80 383 80 356
0 369 -1 379 -20z m-666 -416 c3 -9 3 -22 -1 -29 -23 -39 -215 -265 -226 -265
-16 0 -53 39 -155 166 -77 94 -92 121 -75 137 3 4 106 7 229 7 193 0 223 -2
228 -16z"/>
</g>
</svg>
